<mxfile host="app.diagrams.net" modified="2024-04-10T02:26:46.014Z" agent="Mozilla/5.0 (Macintosh; Intel Mac OS X 10_15_7) AppleWebKit/537.36 (KHTML, like Gecko) Chrome/123.0.0.0 Safari/537.36" version="22.1.16" etag="p6sCKZq-g6kgCbLivaXZ" type="github">
  <diagram name="Page-1" id="RP75BphAeqUrfk1uYmjC">
    <mxGraphModel>
      <root>
        <mxCell id="0" />
        <mxCell id="1" parent="0" />
      </root>
    </mxGraphModel>
  </diagram>
</mxfile>
